mtllib water_tech_house.mtl
# vertices
v -64 -16 -64
v -64 -16 64
v -64 16 64
v -64 16 -64
v 64 16 64
v 64 -16 64
v 64 -16 -64
v 64 16 -64
v -64 -16 64
v -64 -16 256
v -64 96 256
v -64 16 64
v 64 96 256
v 64 -16 256
v 64 -16 64
v 64 16 64
v -256 96 -64
v -256 -16 -64
v -256 -16 64
v -256 96 64
v -64 16 64
v -64 -16 64
v -64 -16 -64
v -64 16 -64
v -64 -16 -256
v -64 -16 -64
v -64 16 -64
v -64 96 -256
v 64 16 -64
v 64 -16 -64
v 64 96 -256
v 64 -16 -256
v 64 -16 -64
v 64 -16 64
v 64 16 64
v 64 16 -64
v 256 96 -64
v 256 96 64
v 256 -16 64
v 256 -16 -64
v -256 -16 -256
v -256 -16 -64
v -256 96 -64
v -256 96 -256
v -64 96 -64
v -64 -16 -64
v -64 -16 -256
v -64 96 -256
v -256 -16 64
v -256 -16 256
v -256 96 256
v -256 96 64
v -64 96 256
v -64 -16 256
v -64 -16 64
v -64 96 64
v 64 -16 64
v 64 -16 256
v 64 96 256
v 64 96 64
v 256 96 256
v 256 -16 256
v 256 -16 64
v 256 96 64
v 64 -16 -256
v 64 -16 -64
v 64 96 -64
v 64 96 -256
v 256 96 -64
v 256 -16 -64
v 256 -16 -256
v 256 96 -256
v -64 -32 -64
v -64 -32 64
v -64 0 64
v -64 0 -64
v 64 0 64
v 64 -32 64
v 64 -32 -64
v 64 0 -64
v -448 -16 256
v -448 -16 832
v -448 96 832
v -448 96 256
v 448 96 832
v 448 -16 832
v 448 -16 256
v 448 96 256
v -448 -16 -256
v -448 -16 256
v -448 96 256
v -448 96 -256
v -256 96 256
v -256 -16 256
v -256 -16 -256
v -256 96 -256
v 256 -16 -256
v 256 -16 256
v 256 96 256
v 256 96 -256
v 448 96 256
v 448 -16 256
v 448 -16 -256
v 448 96 -256
v -448 -16 -832
v -448 -16 -256
v -448 96 -256
v -448 96 -832
v 448 96 -256
v 448 -16 -256
v 448 -16 -832
v 448 96 -832
v -320 96 -704
v -320 96 -672
v -320 448 -672
v -320 448 -704
v -288 448 -672
v -288 96 -672
v -288 96 -704
v -288 448 -704
v 288 96 -704
v 288 96 -672
v 288 448 -672
v 288 448 -704
v 320 448 -672
v 320 96 -672
v 320 96 -704
v 320 448 -704
v -320 96 672
v -320 96 704
v -320 448 704
v -320 448 672
v -288 448 704
v -288 96 704
v -288 96 672
v -288 448 672
v 288 96 672
v 288 96 704
v 288 448 704
v 288 448 672
v 320 448 704
v 320 96 704
v 320 96 672
v 320 448 672
v -448 448 -832
v -448 448 832
v -448 464 832
v -448 464 -832
v 448 464 832
v 448 448 832
v 448 448 -832
v 448 464 -832
v -192 192 -1280
v -192 -16 -832
v -192 96 -832
v -192 304 -1280
v 192 96 -832
v 192 -16 -832
v 192 304 -1280
v 192 192 -1280
v -448 192 -1856
v -448 192 -1280
v -448 304 -1280
v -448 304 -1856
v 448 304 -1280
v 448 192 -1280
v 448 192 -1856
v 448 304 -1856
v -192 -16 832
v -192 192 1280
v -192 304 1280
v -192 96 832
v 192 304 1280
v 192 192 1280
v 192 -16 832
v 192 96 832
v -448 192 1280
v -448 192 1856
v -448 304 1856
v -448 304 1280
v 448 304 1856
v 448 192 1856
v 448 192 1280
v 448 304 1280

# texture coordinates
vt 0.0625 -0.375
vt 0.5625 -0.375
vt 0.5625 -0.25
vt 0.0625 -0.25
vt 0.0625 -0.5625
vt 0.5625 -0.5625
vt 0.5625 -0.0625
vt 0.0625 -0.0625
vt 1.25 -0.3125
vt 5 -0.3125
vt 5 1.875
vt 1.25 0.3125
vt 1.3125 1.875
vt -1.1875 1.875
vt -1.1875 -0.3125
vt 1.3125 -0.3125
vt -1.3125 -5
vt 1.1875 -5
vt 1.1875 -1.25
vt -1.3125 -1.25
vt 1.3125 -1.25
vt -1.1875 -1.25
vt -1.1875 -5
vt 1.3125 -5
vt -1.3125 -0.3125
vt 1.1875 -0.3125
vt 1.1875 0.3125
vt -1.3125 0.3125
vt -1.25 0.3125
vt -5 1.875
vt -5 -0.3125
vt -1.25 -0.3125
vt 1.3125 0.3125
vt -1.1875 0.3125
vt 1.1875 1.875
vt -1.3125 1.875
vt -2.3125 -0.125
vt -1.0624999 -0.125
vt -1.0624999 0.75
vt -2.3125 0.75
vt -0.6249999 0.75
vt -1.8749999 0.75
vt -1.8749999 -0.125
vt -0.6249999 -0.125
vt 1.0624999 -0.6249999
vt 1.0624999 -1.8749999
vt 2.3125 -1.8749999
vt 2.3125 -0.6249999
vt -2.3125 -0.6249999
vt -2.3125 -1.8749999
vt -1.0624999 -1.8749999
vt -1.0624999 -0.6249999
vt 0.6249999 -0.125
vt 1.8749999 -0.125
vt 1.8749999 0.75
vt 0.6249999 0.75
vt 2.3125 0.75
vt 1.0624999 0.75
vt 1.0624999 -0.125
vt 2.3125 -0.125
vt 0.5624999 -0.125
vt 1.8124999 -0.125
vt 1.8124999 0.75
vt 0.5624999 0.75
vt -1.8124999 -0.6249999
vt -1.8124999 -1.8749999
vt -0.5624999 -1.8749999
vt -0.5624999 -0.6249999
vt 0.5624999 -0.6249999
vt 0.5624999 -1.8749999
vt 1.8124999 -1.8749999
vt 1.8124999 -0.6249999
vt -0.5624999 0.75
vt -1.8124999 0.75
vt -1.8124999 -0.125
vt -0.5624999 -0.125
vt 1.2499999 0.75
vt -8.940697e-08 0.75
vt -8.940697e-08 -0.125
vt 1.2499999 -0.125
vt -1.8124999 1.2499999
vt -1.8124999 -8.940697e-08
vt -0.5624999 -8.940697e-08
vt -0.5624999 1.2499999
vt 0.5624999 1.2499999
vt 0.5624999 -8.940697e-08
vt 1.8124999 -8.940697e-08
vt 1.8124999 1.2499999
vt -1.2499999 -0.125
vt 8.940697e-08 -0.125
vt 8.940697e-08 0.75
vt -1.2499999 0.75
vt -1.3124999 -0.125
vt -0.06249991 -0.125
vt -0.06249991 0.75
vt -1.3124999 0.75
vt 0.06249991 1.2499999
vt 0.06249991 -8.940697e-08
vt 1.3124999 -8.940697e-08
vt 1.3124999 1.2499999
vt -1.3124999 1.2499999
vt -1.3124999 -8.940697e-08
vt -0.06249991 -8.940697e-08
vt -0.06249991 1.2499999
vt 1.3124999 0.75
vt 0.06249991 0.75
vt 0.06249991 -0.125
vt 1.3124999 -0.125
vt 1.6875001 -0.125
vt 5.4375 -0.125
vt 5.4375 0.75
vt 1.6875001 0.75
vt 3.8333333 0.75
vt -2.0000002 0.75
vt -2.0000002 -0.125
vt 3.8333333 -0.125
vt -5.4375 3.8333333
vt -5.4375 -2.0000002
vt -1.6875001 -2.0000002
vt -1.6875001 3.8333333
vt 1.6875001 3.8333333
vt 1.6875001 -2.0000002
vt 5.4375 -2.0000002
vt 5.4375 3.8333333
vt -3.8333333 -0.125
vt 2.0000002 -0.125
vt 2.0000002 0.75
vt -3.8333333 0.75
vt -1.6875001 0.75
vt -5.4375 0.75
vt -5.4375 -0.125
vt -1.6875001 -0.125
vt 1.0208334 -0.125
vt 1.0208334 0.75
vt -0.7500001 0.75
vt -0.7500001 -0.125
vt -1.0208334 -0.7500001
vt -1.0208334 -2.0000002
vt 2.3125 -2.0000002
vt 2.3125 -0.7500001
vt -2.3125 -0.7500001
vt -2.3125 -2.0000002
vt 1.0208334 -2.0000002
vt 1.0208334 -0.7500001
vt 0.7500001 -0.125
vt 0.7500001 0.75
vt -1.0208334 0.75
vt -1.0208334 -0.125
vt 2.3750002 0.75
vt 1.1250001 0.75
vt 1.1250001 -0.125
vt 2.3750002 -0.125
vt -1.0208334 2.3750002
vt -1.0208334 1.1250001
vt 2.3125 1.1250001
vt 2.3125 2.3750002
vt -2.3125 2.3750002
vt -2.3125 1.1250001
vt 1.0208334 1.1250001
vt 1.0208334 2.3750002
vt -2.3750002 -0.125
vt -1.1250001 -0.125
vt -1.1250001 0.75
vt -2.3750002 0.75
vt -5.3125 -0.125
vt -1.5624999 -0.125
vt -1.5624999 0.75
vt -5.3125 0.75
vt 1.5624999 3.8333333
vt 1.5624999 -2.0000002
vt 5.3125 -2.0000002
vt 5.3125 3.8333333
vt -5.3125 3.8333333
vt -5.3125 -2.0000002
vt -1.5624999 -2.0000002
vt -1.5624999 3.8333333
vt 5.3125 0.75
vt 1.5624999 0.75
vt 1.5624999 -0.125
vt 5.3125 -0.125
vt -5.375 0.75
vt -5.125 0.75
vt -5.125 3.5
vt -5.375 3.5
vt -2 3.5
vt -2.25 3.5
vt -2.25 0.75
vt -2 0.75
vt 2 5.125
vt 2.25 5.125
vt 2.25 5.375
vt 2 5.375
vt -2 5.375
vt -2.25 5.375
vt -2.25 5.125
vt -2 5.125
vt 2 0.75
vt 2.25 0.75
vt 2.25 3.5
vt 2 3.5
vt 5.375 3.5
vt 5.125 3.5
vt 5.125 0.75
vt 5.375 0.75
vt 1.75 3.5
vt 1.75 0.75
vt -1.75 5.125
vt -1.75 5.375
vt 1.75 5.375
vt 1.75 5.125
vt -1.75 0.75
vt -1.75 3.5
vt 4.625 0.75
vt 4.875 0.75
vt 4.875 3.5
vt 4.625 3.5
vt 2 -4.875
vt 2.25 -4.875
vt 2.25 -4.625
vt 2 -4.625
vt -2 -4.625
vt -2.25 -4.625
vt -2.25 -4.875
vt -2 -4.875
vt -4.625 3.5
vt -4.875 3.5
vt -4.875 0.75
vt -4.625 0.75
vt -1.75 -4.875
vt -1.75 -4.625
vt 1.75 -4.625
vt 1.75 -4.875
vt -5.3125 3.875
vt 5.520833 3.875
vt 5.520833 4
vt -5.3125 4
vt 3.8333333 4
vt -2.0000002 4
vt -2.0000002 3.875
vt 3.8333333 3.875
vt -5.520833 3.8333333
vt -5.520833 -2.0000002
vt 5.520833 -2.0000002
vt 5.520833 3.8333333
vt -3.8333333 3.875
vt 2.0000002 3.875
vt 2.0000002 4
vt -3.8333333 4
vt 5.3125 4
vt -5.520833 4
vt -5.520833 3.875
vt 5.3125 3.875
vt -7.4791665 1.5
vt -4.5625 -0.125
vt -4.5625 0.75
vt -7.4791665 2.375
vt 2.1666665 0.75
vt -0.3333335 0.75
vt -0.3333335 -0.125
vt 2.1666665 -0.125
vt -7.4791665 2.1666665
vt -7.4791665 -0.3333335
vt -4.5625 -0.3333335
vt -4.5625 2.1666665
vt 4.5625 2.1666665
vt 4.5625 -0.3333335
vt 7.4791665 -0.3333335
vt 7.4791665 2.1666665
vt -2.1666665 1.5
vt 0.3333335 1.5
vt 0.3333335 2.375
vt -2.1666665 2.375
vt 4.5625 0.75
vt 4.5625 -0.125
vt 7.4791665 1.5
vt 7.4791665 2.375
vt -12.3125 0.875
vt -8.5625 0.875
vt -8.5625 1.75
vt -12.3125 1.75
vt 3.8333333 1.75
vt -2.0000002 1.75
vt -2.0000002 0.875
vt 3.8333333 0.875
vt 8.5625 3.8333333
vt 8.5625 -2.0000002
vt 12.3125 -2.0000002
vt 12.3125 3.8333333
vt -12.3125 3.8333333
vt -12.3125 -2.0000002
vt -8.5625 -2.0000002
vt -8.5625 3.8333333
vt -3.8333333 0.875
vt 2.0000002 0.875
vt 2.0000002 1.75
vt -3.8333333 1.75
vt 12.3125 1.75
vt 8.5625 1.75
vt 8.5625 0.875
vt 12.3125 0.875
vt 4.5624986 -0.125
vt 7.479165 1.5
vt 7.479165 2.375
vt 4.5624986 0.75
vt 7.479165 -0.3333335
vt 7.479165 2.1666665
vt 4.5624986 2.1666665
vt 4.5624986 -0.3333335
vt -4.5624986 -0.3333335
vt -4.5624986 2.1666665
vt -7.479165 2.1666665
vt -7.479165 -0.3333335
vt -4.5624986 0.75
vt -7.479165 2.375
vt -7.479165 1.5
vt -4.5624986 -0.125
vt 7.562501 0.875
vt 11.312501 0.875
vt 11.312501 1.75
vt 7.562501 1.75
vt 11.312501 -2.0000002
vt 11.312501 3.8333333
vt 7.562501 3.8333333
vt 7.562501 -2.0000002
vt -7.562501 -2.0000002
vt -7.562501 3.8333333
vt -11.312501 3.8333333
vt -11.312501 -2.0000002
vt -7.562501 1.75
vt -11.312501 1.75
vt -11.312501 0.875
vt -7.562501 0.875

# normals
vn -1 0 -0
vn 0 0 1
vn 0 -1 -0
vn 0 1 -0
vn 0 0 -1
vn 1 0 -0
vn 0 0.9230769230769231 -0.38461538461538464
vn 0.38461538461538464 0.9230769230769231 -0
vn 0 0.9230769230769231 0.38461538461538464
vn -0.38461538461538464 0.9230769230769231 -0
vn 0 0.9070089677484316 0.421111306454629
vn 0 -0.9070089677484316 -0.421111306454629
vn 0 -0.9070089677484316 0.421111306454629
vn 0 0.9070089677484316 -0.421111306454629

o entity0_brush0
usemtl Metal/s2 Metal Grid 1 Holes
f  1/1/1  2/2/1  3/3/1  4/4/1
usemtl Metal/s2 Metal Grid 1 Holes
f  5/3/2  3/4/2  2/1/2  6/2/2
usemtl Metal/s2 Metal Grid 1 Holes
f  6/5/3  2/6/3  1/7/3  7/8/3
usemtl Metal/s2 Metal Grid 1 Holes
f  8/7/4  4/8/4  3/5/4  5/6/4
usemtl Metal/s2 Metal Grid 1 Holes
f  7/1/5  1/2/5  4/3/5  8/4/5
usemtl Metal/s2 Metal Grid 1 Holes
f  8/3/6  5/4/6  6/1/6  7/2/6

o entity0_brush1
usemtl Metal/s2 Metal Grid 3 panels
f  9/9/1  10/10/1  11/11/1  12/12/1
usemtl Metal/s2 Metal Grid 3 panels
f  13/13/2  11/14/2  10/15/2  14/16/2
usemtl Metal/s2 Metal Grid 3 panels
f  14/17/3  10/18/3  9/19/3  15/20/3
usemtl Metal/s2 Metal Grid 3 panels
f  16/21/7  12/22/7  11/23/7  13/24/7
usemtl Metal/s2 Metal Grid 3 panels
f  15/25/5  9/26/5  12/27/5  16/28/5
usemtl Metal/s2 Metal Grid 3 panels
f  16/29/6  13/30/6  14/31/6  15/32/6

o entity0_brush2
usemtl Metal/s2 Metal Grid 3 panels
f  17/14/1  18/15/1  19/16/1  20/13/1
usemtl Metal/s2 Metal Grid 3 panels
f  21/29/2  20/30/2  19/31/2  22/32/2
usemtl Metal/s2 Metal Grid 3 panels
f  22/20/3  19/17/3  18/18/3  23/19/3
usemtl Metal/s2 Metal Grid 3 panels
f  23/9/5  18/10/5  17/11/5  24/12/5
usemtl Metal/s2 Metal Grid 3 panels
f  24/22/8  17/23/8  20/24/8  21/21/8
usemtl Metal/s2 Metal Grid 3 panels
f  23/26/6  24/27/6  21/28/6  22/25/6

o entity0_brush3
usemtl Metal/s2 Metal Grid 3 panels
f  25/31/1  26/32/1  27/29/1  28/30/1
usemtl Metal/s2 Metal Grid 3 panels
f  29/27/2  27/28/2  26/25/2  30/26/2
usemtl Metal/s2 Metal Grid 3 panels
f  31/23/9  28/24/9  27/21/9  29/22/9
usemtl Metal/s2 Metal Grid 3 panels
f  30/19/3  26/20/3  25/17/3  32/18/3
usemtl Metal/s2 Metal Grid 3 panels
f  32/15/5  25/16/5  28/13/5  31/14/5
usemtl Metal/s2 Metal Grid 3 panels
f  29/12/6  30/9/6  32/10/6  31/11/6

o entity0_brush4
usemtl Metal/s2 Metal Grid 3 panels
f  33/15/1  34/16/1  35/33/1  36/34/1
usemtl Metal/s2 Metal Grid 3 panels
f  37/18/10  36/19/10  35/20/10  38/17/10
usemtl Metal/s2 Metal Grid 3 panels
f  38/11/2  35/12/2  34/9/2  39/10/2
usemtl Metal/s2 Metal Grid 3 panels
f  39/24/3  34/21/3  33/22/3  40/23/3
usemtl Metal/s2 Metal Grid 3 panels
f  40/31/5  33/32/5  36/29/5  37/30/5
usemtl Metal/s2 Metal Grid 3 panels
f  39/25/6  40/26/6  37/35/6  38/36/6

o entity0_brush5
usemtl Metal/s2 Metal Grid 2
f  41/37/1  42/38/1  43/39/1  44/40/1
usemtl Metal/s2 Metal Grid 2
f  45/41/2  43/42/2  42/43/2  46/44/2
usemtl Metal/s2 Metal Grid 2
f  46/45/3  42/46/3  41/47/3  47/48/3
usemtl Metal/s2 Metal Grid 2
f  48/49/4  44/50/4  43/51/4  45/52/4
usemtl Metal/s2 Metal Grid 2
f  47/53/5  41/54/5  44/55/5  48/56/5
usemtl Metal/s2 Metal Grid 2
f  48/57/6  45/58/6  46/59/6  47/60/6

o entity0_brush6
usemtl Metal/s2 Metal Grid 2
f  49/61/1  50/62/1  51/63/1  52/64/1
usemtl Metal/s2 Metal Grid 2
f  53/41/2  51/42/2  50/43/2  54/44/2
usemtl Metal/s2 Metal Grid 2
f  54/65/3  50/66/3  49/67/3  55/68/3
usemtl Metal/s2 Metal Grid 2
f  56/69/4  52/70/4  51/71/4  53/72/4
usemtl Metal/s2 Metal Grid 2
f  55/53/5  49/54/5  52/55/5  56/56/5
usemtl Metal/s2 Metal Grid 2
f  56/73/6  53/74/6  54/75/6  55/76/6

o entity0_brush7
usemtl Metal/s2 Metal Grid 2
f  57/61/1  58/62/1  59/63/1  60/64/1
usemtl Metal/s2 Metal Grid 2
f  61/77/2  59/78/2  58/79/2  62/80/2
usemtl Metal/s2 Metal Grid 2
f  62/81/3  58/82/3  57/83/3  63/84/3
usemtl Metal/s2 Metal Grid 2
f  64/85/4  60/86/4  59/87/4  61/88/4
usemtl Metal/s2 Metal Grid 2
f  63/89/5  57/90/5  60/91/5  64/92/5
usemtl Metal/s2 Metal Grid 2
f  64/73/6  61/74/6  62/75/6  63/76/6

o entity0_brush8
usemtl Metal/s2 Metal Grid 2
f  65/93/1  66/94/1  67/95/1  68/96/1
usemtl Metal/s2 Metal Grid 2
f  69/77/2  67/78/2  66/79/2  70/80/2
usemtl Metal/s2 Metal Grid 2
f  70/97/3  66/98/3  65/99/3  71/100/3
usemtl Metal/s2 Metal Grid 2
f  72/101/4  68/102/4  67/103/4  69/104/4
usemtl Metal/s2 Metal Grid 2
f  71/89/5  65/90/5  68/91/5  72/92/5
usemtl Metal/s2 Metal Grid 2
f  72/105/6  69/106/6  70/107/6  71/108/6

o entity0_brush9
usemtl Water/s2 Water Blue Dark Trash
f  73/1/1  74/2/1  75/3/1  76/4/1
usemtl Water/s2 Water Blue Dark Trash
f  77/3/2  75/4/2  74/1/2  78/2/2
usemtl Water/s2 Water Blue Dark Trash
f  78/5/3  74/6/3  73/7/3  79/8/3
usemtl Water/s2 Water Blue Dark Trash
f  80/7/4  76/8/4  75/5/4  77/6/4
usemtl Water/s2 Water Blue Dark Trash
f  79/1/5  73/2/5  76/3/5  80/4/5
usemtl Water/s2 Water Blue Dark Trash
f  80/3/6  77/4/6  78/1/6  79/2/6

o entity0_brush10
usemtl Metal/s2 Metal Grid 2
f  81/109/1  82/110/1  83/111/1  84/112/1
usemtl Metal/s2 Metal Grid 2
f  85/113/2  83/114/2  82/115/2  86/116/2
usemtl Metal/s2 Metal Grid 2
f  86/117/3  82/118/3  81/119/3  87/120/3
usemtl Metal/s2 Metal Grid 2
f  88/121/4  84/122/4  83/123/4  85/124/4
usemtl Metal/s2 Metal Grid 2
f  87/125/5  81/126/5  84/127/5  88/128/5
usemtl Metal/s2 Metal Grid 2
f  88/129/6  85/130/6  86/131/6  87/132/6

o entity0_brush11
usemtl Metal/s2 Metal Grid 2
f  89/37/1  90/133/1  91/134/1  92/40/1
usemtl Metal/s2 Metal Grid 2
f  93/135/2  91/114/2  90/115/2  94/136/2
usemtl Metal/s2 Metal Grid 2
f  94/137/3  90/138/3  89/139/3  95/140/3
usemtl Metal/s2 Metal Grid 2
f  96/141/4  92/142/4  91/143/4  93/144/4
usemtl Metal/s2 Metal Grid 2
f  95/145/5  89/126/5  92/127/5  96/146/5
usemtl Metal/s2 Metal Grid 2
f  96/57/6  93/147/6  94/148/6  95/60/6

o entity0_brush12
usemtl Metal/s2 Metal Grid 2
f  97/37/1  98/133/1  99/134/1  100/40/1
usemtl Metal/s2 Metal Grid 2
f  101/149/2  99/150/2  98/151/2  102/152/2
usemtl Metal/s2 Metal Grid 2
f  102/153/3  98/154/3  97/155/3  103/156/3
usemtl Metal/s2 Metal Grid 2
f  104/157/4  100/158/4  99/159/4  101/160/4
usemtl Metal/s2 Metal Grid 2
f  103/161/5  97/162/5  100/163/5  104/164/5
usemtl Metal/s2 Metal Grid 2
f  104/57/6  101/147/6  102/148/6  103/60/6

o entity0_brush13
usemtl Metal/s2 Metal Grid 2
f  105/165/1  106/166/1  107/167/1  108/168/1
usemtl Metal/s2 Metal Grid 2
f  109/113/2  107/114/2  106/115/2  110/116/2
usemtl Metal/s2 Metal Grid 2
f  110/169/3  106/170/3  105/171/3  111/172/3
usemtl Metal/s2 Metal Grid 2
f  112/173/4  108/174/4  107/175/4  109/176/4
usemtl Metal/s2 Metal Grid 2
f  111/125/5  105/126/5  108/127/5  112/128/5
usemtl Metal/s2 Metal Grid 2
f  112/177/6  109/178/6  110/179/6  111/180/6

o entity0_brush14
usemtl Roofing/s2 Roof Tile Grey
f  113/181/1  114/182/1  115/183/1  116/184/1
usemtl Roofing/s2 Roof Tile Grey
f  117/185/2  115/186/2  114/187/2  118/188/2
usemtl Roofing/s2 Roof Tile Grey
f  118/189/3  114/190/3  113/191/3  119/192/3
usemtl Roofing/s2 Roof Tile Grey
f  120/193/4  116/194/4  115/195/4  117/196/4
usemtl Roofing/s2 Roof Tile Grey
f  119/197/5  113/198/5  116/199/5  120/200/5
usemtl Roofing/s2 Roof Tile Grey
f  120/201/6  117/202/6  118/203/6  119/204/6

o entity0_brush15
usemtl Roofing/s2 Roof Tile Grey
f  121/181/1  122/182/1  123/183/1  124/184/1
usemtl Roofing/s2 Roof Tile Grey
f  125/200/2  123/205/2  122/206/2  126/197/2
usemtl Roofing/s2 Roof Tile Grey
f  126/196/3  122/207/3  121/208/3  127/193/3
usemtl Roofing/s2 Roof Tile Grey
f  128/192/4  124/209/4  123/210/4  125/189/4
usemtl Roofing/s2 Roof Tile Grey
f  127/188/5  121/211/5  124/212/5  128/185/5
usemtl Roofing/s2 Roof Tile Grey
f  128/201/6  125/202/6  126/203/6  127/204/6

o entity0_brush16
usemtl Roofing/s2 Roof Tile Grey
f  129/213/1  130/214/1  131/215/1  132/216/1
usemtl Roofing/s2 Roof Tile Grey
f  133/185/2  131/186/2  130/187/2  134/188/2
usemtl Roofing/s2 Roof Tile Grey
f  134/217/3  130/218/3  129/219/3  135/220/3
usemtl Roofing/s2 Roof Tile Grey
f  136/221/4  132/222/4  131/223/4  133/224/4
usemtl Roofing/s2 Roof Tile Grey
f  135/197/5  129/198/5  132/199/5  136/200/5
usemtl Roofing/s2 Roof Tile Grey
f  136/225/6  133/226/6  134/227/6  135/228/6

o entity0_brush17
usemtl Roofing/s2 Roof Tile Grey
f  137/213/1  138/214/1  139/215/1  140/216/1
usemtl Roofing/s2 Roof Tile Grey
f  141/200/2  139/205/2  138/206/2  142/197/2
usemtl Roofing/s2 Roof Tile Grey
f  142/224/3  138/229/3  137/230/3  143/221/3
usemtl Roofing/s2 Roof Tile Grey
f  144/220/4  140/231/4  139/232/4  141/217/4
usemtl Roofing/s2 Roof Tile Grey
f  143/188/5  137/211/5  140/212/5  144/185/5
usemtl Roofing/s2 Roof Tile Grey
f  144/225/6  141/226/6  142/227/6  143/228/6

o entity0_brush18
usemtl Metal/s2 Metal Grid 2
f  145/233/1  146/234/1  147/235/1  148/236/1
usemtl Metal/s2 Metal Grid 2
f  149/237/2  147/238/2  146/239/2  150/240/2
usemtl Metal/s2 Metal Grid 2
f  150/241/3  146/242/3  145/171/3  151/172/3
usemtl Metal/s2 Metal Grid 2
f  152/173/4  148/174/4  147/243/4  149/244/4
usemtl Metal/s2 Metal Grid 2
f  151/245/5  145/246/5  148/247/5  152/248/5
usemtl Metal/s2 Metal Grid 2
f  152/249/6  149/250/6  150/251/6  151/252/6

o entity0_brush19
usemtl Metal/s2 Metal Grid 1 Holes
f  153/253/1  154/254/1  155/255/1  156/256/1
usemtl Metal/s2 Metal Grid 1 Holes
f  157/257/2  155/258/2  154/259/2  158/260/2
usemtl Metal/s2 Metal Grid 1 Holes
f  159/261/11  156/262/11  155/263/11  157/264/11
usemtl Metal/s2 Metal Grid 1 Holes
f  158/265/12  154/266/12  153/267/12  160/268/12
usemtl Metal/s2 Metal Grid 1 Holes
f  160/269/5  153/270/5  156/271/5  159/272/5
usemtl Metal/s2 Metal Grid 1 Holes
f  157/273/6  158/274/6  160/275/6  159/276/6

o entity0_brush20
usemtl Metal/s2 Metal Grid 1 Holes
f  161/277/1  162/278/1  163/279/1  164/280/1
usemtl Metal/s2 Metal Grid 1 Holes
f  165/281/2  163/282/2  162/283/2  166/284/2
usemtl Metal/s2 Metal Grid 1 Holes
f  166/285/3  162/286/3  161/287/3  167/288/3
usemtl Metal/s2 Metal Grid 1 Holes
f  168/289/4  164/290/4  163/291/4  165/292/4
usemtl Metal/s2 Metal Grid 1 Holes
f  167/293/5  161/294/5  164/295/5  168/296/5
usemtl Metal/s2 Metal Grid 1 Holes
f  168/297/6  165/298/6  166/299/6  167/300/6

o entity0_brush21
usemtl Metal/s2 Metal Grid 1 Holes
f  169/301/1  170/302/1  171/303/1  172/304/1
usemtl Metal/s2 Metal Grid 1 Holes
f  173/271/2  171/272/2  170/269/2  174/270/2
usemtl Metal/s2 Metal Grid 1 Holes
f  174/305/13  170/306/13  169/307/13  175/308/13
usemtl Metal/s2 Metal Grid 1 Holes
f  176/309/14  172/310/14  171/311/14  173/312/14
usemtl Metal/s2 Metal Grid 1 Holes
f  175/259/5  169/260/5  172/257/5  176/258/5
usemtl Metal/s2 Metal Grid 1 Holes
f  176/313/6  173/314/6  174/315/6  175/316/6

o entity0_brush22
usemtl Metal/s2 Metal Grid 1 Holes
f  177/317/1  178/318/1  179/319/1  180/320/1
usemtl Metal/s2 Metal Grid 1 Holes
f  181/295/2  179/296/2  178/293/2  182/294/2
usemtl Metal/s2 Metal Grid 1 Holes
f  182/321/3  178/322/3  177/323/3  183/324/3
usemtl Metal/s2 Metal Grid 1 Holes
f  184/325/4  180/326/4  179/327/4  181/328/4
usemtl Metal/s2 Metal Grid 1 Holes
f  183/283/5  177/284/5  180/281/5  184/282/5
usemtl Metal/s2 Metal Grid 1 Holes
f  184/329/6  181/330/6  182/331/6  183/332/6

