# Made in Blockbench 4.9.3
mtllib shotgun.mtl

o cylinder
v -0.37499999999999994 0.055717844093694846 -1.2371846679058961e-17
v -0.37499999999999994 0.05571784409369496 0.5
v -0.35568643785156573 0.02776699437494745 -6.1655112959407735e-18
v -0.35568643785156573 0.027766994374947562 0.5
v -0.34374999999999994 0.06639411867181588 -1.4742455849829002e-17
v -0.34374999999999994 0.066394118671816 0.5
v -0.37499999999999994 0.09026699437494745 -2.004329910375523e-17
v -0.37499999999999994 0.09026699437494756 0.5
v -0.40624999999999994 0.06639411867181588 -1.4742455849829002e-17
v -0.40624999999999994 0.066394118671816 0.5
v -0.39431356214843416 0.02776699437494745 -6.1655112959407735e-18
v -0.39431356214843416 0.027766994374947562 0.5
vt 0.5000001446220527 0.27345767022621104
vt 0.5000001446220526 1
vt 0 0.6367314490566394
vt 0 0.5
vt 0.7265375 0.5
vt 0.7265375 1
vt 0 1
vt 0.1909828632186942 0.41221625517257454
vt 0.6180355839333302 1
vt 0 1
vt 0 0.38196874999999997
vt 0.5877875 0.80901875
vt 0 1
vt 0 0.5
vt 0.7265375 0.5
vt 0.7265375 1
vt 0 1
vt 0.5877875 0.57295
vt 0 1
vt 0 0.38196874999999997
vt 0 0.80901875
vt 0.5877875 0.38196874999999997
vt 0.5877875 1
vt 0 0.5
vt 0.7265375 0.5
vt 0.7265375 1
vt 0 1
vt 0.5877875 1
vt 0 0.57295
vt 0.5877875 0.38196874999999997
vt 0.42705272071463607 1
vt 0 0.41221625517257454
vt 0.6180355839333302 0.41221625517257454
vt 0 0.5
vt 0.7265375 0.5
vt 0.7265375 1
vt 0 1
vt 0 1
vt 1.1102230246251565e-16 0.27345767022621104
vt 0.5000001446220527 0.6367262211695717
vt 0.7265375 1
vt 0 1
vt 0.36326875 0.5
vt 0 0.5
vt 0.7265375 0.5
vt 0.7265375 1
vt 0 1
vt 0 0.5
vt 0.7265375 0.5
vt 0.36326875 1
vn 0 -2.220446049250313e-16 -1
vn 0.9554225632202383 -0.29524180884432616 6.555685080219002e-17
vn 0 2.220446049250313e-16 1
vn 0 -2.220446049250313e-16 -1
vn 0.6070619982066862 0.7946544722917662 -1.7644873835193447e-16
vn 0 2.220446049250313e-16 1
vn 0 -2.220446049250313e-16 -1
vn -0.6070619982066862 0.7946544722917662 -1.7644873835193447e-16
vn 0 2.220446049250313e-16 1
vn 0 -2.220446049250313e-16 -1
vn -0.9554225632202383 -0.29524180884432616 6.555685080219002e-17
vn 0 2.220446049250313e-16 1
vn 0 -2.220446049250313e-16 -1
vn 0 -1 2.220446049250313e-16
vn 0 2.220446049250313e-16 1
usemtl none
f 5/1/1 3/2/1 1/3/1
usemtl m_68baacfd-e73c-79b3-8d97-a54f122abc8a
f 3/4/2 5/5/2 6/6/2 4/7/2
usemtl none
f 4/8/3 6/9/3 2/10/3
f 7/11/4 5/12/4 1/13/4
usemtl m_68baacfd-e73c-79b3-8d97-a54f122abc8a
f 5/14/5 7/15/5 8/16/5 6/17/5
usemtl none
f 6/18/6 8/19/6 2/20/6
f 9/21/7 7/22/7 1/23/7
usemtl m_68baacfd-e73c-79b3-8d97-a54f122abc8a
f 7/24/8 9/25/8 10/26/8 8/27/8
usemtl none
f 8/28/9 10/29/9 2/30/9
f 11/31/10 9/32/10 1/33/10
usemtl m_68baacfd-e73c-79b3-8d97-a54f122abc8a
f 9/34/11 11/35/11 12/36/11 10/37/11
usemtl none
f 10/38/12 12/39/12 2/40/12
f 3/41/13 11/42/13 1/43/13
usemtl m_68baacfd-e73c-79b3-8d97-a54f122abc8a
f 11/44/14 3/45/14 4/46/14 12/47/14
usemtl none
f 12/48/15 4/49/15 2/50/15
o cylinder
v -0.31249999999999994 0.055717844093694846 -1.2371846679058961e-17
v -0.31249999999999994 0.05571784409369496 0.5
v -0.29318643785156573 0.02776699437494745 -6.1655112959407735e-18
v -0.29318643785156573 0.027766994374947562 0.5
v -0.28124999999999994 0.06639411867181588 -1.4742455849829002e-17
v -0.28124999999999994 0.066394118671816 0.5
v -0.31249999999999994 0.09026699437494745 -2.004329910375523e-17
v -0.31249999999999994 0.09026699437494756 0.5
v -0.34374999999999994 0.06639411867181588 -1.4742455849829002e-17
v -0.34374999999999994 0.066394118671816 0.5
v -0.33181356214843416 0.02776699437494745 -6.1655112959407735e-18
v -0.33181356214843416 0.027766994374947562 0.5
vt 0.5000001446220527 0.27345767022621104
vt 0.5000001446220526 1
vt 0 0.6367314490566394
vt 0 0.5
vt 0.7265375 0.5
vt 0.7265375 1
vt 0 1
vt 0.1909828632186942 0.41221625517257454
vt 0.6180355839333302 1
vt 0 1
vt 0 0.38196874999999997
vt 0.5877875 0.80901875
vt 0 1
vt 0 0.5
vt 0.7265375 0.5
vt 0.7265375 1
vt 0 1
vt 0.5877875 0.57295
vt 0 1
vt 0 0.38196874999999997
vt 0 0.80901875
vt 0.5877875 0.38196874999999997
vt 0.5877875 1
vt 0 0.5
vt 0.7265375 0.5
vt 0.7265375 1
vt 0 1
vt 0.5877875 1
vt 0 0.57295
vt 0.5877875 0.38196874999999997
vt 0.42705272071463607 1
vt 0 0.41221625517257454
vt 0.6180355839333302 0.41221625517257454
vt 0 0.5
vt 0.7265375 0.5
vt 0.7265375 1
vt 0 1
vt 0 1
vt 1.1102230246251565e-16 0.27345767022621104
vt 0.5000001446220527 0.6367262211695717
vt 0.7265375 1
vt 0 1
vt 0.36326875 0.5
vt 0 0.5
vt 0.7265375 0.5
vt 0.7265375 1
vt 0 1
vt 0 0.5
vt 0.7265375 0.5
vt 0.36326875 1
vn 0 -2.220446049250313e-16 -1
vn 0.9554225632202383 -0.29524180884432616 6.555685080219002e-17
vn 0 2.220446049250313e-16 1
vn 0 -2.220446049250313e-16 -1
vn 0.6070619982066862 0.7946544722917662 -1.7644873835193447e-16
vn 0 2.220446049250313e-16 1
vn 0 -2.220446049250313e-16 -1
vn -0.6070619982066862 0.7946544722917662 -1.7644873835193447e-16
vn 0 2.220446049250313e-16 1
vn 0 -2.220446049250313e-16 -1
vn -0.9554225632202383 -0.29524180884432616 6.555685080219002e-17
vn 0 2.220446049250313e-16 1
vn 0 -2.220446049250313e-16 -1
vn 0 -1 2.220446049250313e-16
vn 0 2.220446049250313e-16 1
usemtl none
f 17/51/16 15/52/16 13/53/16
usemtl m_68baacfd-e73c-79b3-8d97-a54f122abc8a
f 15/54/17 17/55/17 18/56/17 16/57/17
usemtl none
f 16/58/18 18/59/18 14/60/18
f 19/61/19 17/62/19 13/63/19
usemtl m_68baacfd-e73c-79b3-8d97-a54f122abc8a
f 17/64/20 19/65/20 20/66/20 18/67/20
usemtl none
f 18/68/21 20/69/21 14/70/21
f 21/71/22 19/72/22 13/73/22
usemtl m_68baacfd-e73c-79b3-8d97-a54f122abc8a
f 19/74/23 21/75/23 22/76/23 20/77/23
usemtl none
f 20/78/24 22/79/24 14/80/24
f 23/81/25 21/82/25 13/83/25
usemtl m_68baacfd-e73c-79b3-8d97-a54f122abc8a
f 21/84/26 23/85/26 24/86/26 22/87/26
usemtl none
f 22/88/27 24/89/27 14/90/27
f 15/91/28 23/92/28 13/93/28
usemtl m_68baacfd-e73c-79b3-8d97-a54f122abc8a
f 23/94/29 15/95/29 16/96/29 24/97/29
usemtl none
f 24/98/30 16/99/30 14/100/30
o cuboid
v -0.2562500000000001 0.09999999999999999 0.625
v -0.2562500000000001 0.09999999999999999 0.5
v -0.2562500000000001 0.012500000000000002 0.625
v -0.2562500000000001 0.012500000000000002 0.5
v -0.43125000000000013 0.09999999999999999 0.625
v -0.43125000000000013 0.09999999999999999 0.5
v -0.43125000000000013 0.012500000000000002 0.625
v -0.43125000000000013 0.012500000000000002 0.5
vt 1 1
vt 0 1
vt 0 0.5
vt 1 0.5
vt 1 0.5
vt 1 1
vt 0 1
vt 0 0.5
vt 0 0
vt 1 0
vt 1 1
vt 0 1
vt 1 0
vt 1 1
vt 0 1
vt 0 0
vt 1 0.5
vt 1 1
vt 0 1
vt 0 0.5
vt 1 1
vt 0 1
vt 0 0.5
vt 1 0.5
vn 1 0 0
vn -1 0 0
vn 0 1 0
vn 0 -1 0
vn 0 0 1
vn 0 0 -1
usemtl m_0f78bcea-5eba-be99-1a00-d5baf4f24c70
f 26/101/31 25/102/31 27/103/31 28/104/31
f 31/105/32 29/106/32 30/107/32 32/108/32
f 29/109/33 25/110/33 26/111/33 30/112/33
f 28/113/34 27/114/34 31/115/34 32/116/34
usemtl none
f 27/117/35 25/118/35 29/119/35 31/120/35
usemtl m_0f78bcea-5eba-be99-1a00-d5baf4f24c70
f 30/121/36 26/122/36 28/123/36 32/124/36
o cuboid
v -0.25625 0.09999999999999999 0.7499999999999999
v -0.25625 0.09999999999999999 0.6249999999999999
v -0.25625 0.012500000000000002 0.8124999999999999
v -0.25625 0.012500000000000002 0.6249999999999999
v -0.43124999999999997 0.09999999999999999 0.7499999999999999
v -0.43124999999999997 0.09999999999999999 0.6249999999999999
v -0.43124999999999997 0.012500000000000002 0.8124999999999999
v -0.43124999999999997 0.012500000000000002 0.6249999999999999
vt 1 1
vt 0 1
vt 0 0.5
vt 1 0.5
vt 1 0.5
vt 1 1
vt 0 1
vt 0 0.5
vt 0 0
vt 1 0
vt 1 1
vt 0 1
vt 1 0
vt 1 1
vt 0 1
vt 0 0
vt 1 0.5
vt 1 1
vt 0 1
vt 0 0.5
vt 1 1
vt 0 1
vt 0 0.5
vt 1 0.5
vn 1 0 0
vn -1 0 0
vn 0 1 0
vn 0 -1 0
vn 0 0.5812381937190965 0.813733471206735
vn 0 0 -1
usemtl m_0f78bcea-5eba-be99-1a00-d5baf4f24c70
f 34/125/37 33/126/37 35/127/37 36/128/37
f 39/129/38 37/130/38 38/131/38 40/132/38
f 37/133/39 33/134/39 34/135/39 38/136/39
f 36/137/40 35/138/40 39/139/40 40/140/40
f 35/141/41 33/142/41 37/143/41 39/144/41
usemtl none
f 38/145/42 34/146/42 36/147/42 40/148/42
o cuboid
v -0.2562500000000001 0.01249999999999997 0.8125
v -0.2562500000000001 0.01249999999999997 0.6875
v -0.3187500000000001 -0.07500000000000002 0.8312499999999999
v -0.3187500000000001 -0.07500000000000002 0.75
v -0.43125000000000013 0.01249999999999997 0.8125
v -0.43125000000000013 0.01249999999999997 0.6875
v -0.36875000000000013 -0.07500000000000002 0.8312499999999999
v -0.36875000000000013 -0.07500000000000002 0.75
vt 1 1
vt 0 1
vt 0 0.5
vt 1 0.5
vt 1 0.5
vt 1 1
vt 0 1
vt 0 0.5
vt 0 0
vt 1 0
vt 1 1
vt 0 1
vt 1 0
vt 1 1
vt 0 1
vt 0 0
vt 1 0.5
vt 1 1
vt 0 1
vt 0 0.5
vt 1 1
vt 0 1
vt 0 0.5
vt 1 0.5
vn 0.8137334712067349 -0.5812381937190965 0
vn -0.8137334712067349 -0.5812381937190965 0
vn 0 1 0
vn 0 -1 0
vn 0 0.20952908873087275 0.9778024140774096
vn 0 -0.5812381937190965 -0.8137334712067349
usemtl m_0f78bcea-5eba-be99-1a00-d5baf4f24c70
f 42/149/43 41/150/43 43/151/43 44/152/43
f 47/153/44 45/154/44 46/155/44 48/156/44
usemtl none
f 45/157/45 41/158/45 42/159/45 46/160/45
f 44/161/46 43/162/46 47/163/46 48/164/46
usemtl m_0f78bcea-5eba-be99-1a00-d5baf4f24c70
f 43/165/47 41/166/47 45/167/47 47/168/47
f 46/169/48 42/170/48 44/171/48 48/172/48
o cuboid
v -0.3125000000000001 0.07499999999999998 0.59375
v -0.3125000000000001 0.07499999999999998 0.53125
v -0.3125000000000001 -0.1375 0.59375
v -0.3125000000000001 -0.1375 0.53125
v -0.3750000000000001 0.07499999999999998 0.59375
v -0.3750000000000001 0.07499999999999998 0.53125
v -0.3750000000000001 -0.1375 0.59375
v -0.3750000000000001 -0.1375 0.53125
vt 1 1
vt 0 1
vt 0 0.5
vt 1 0.5
vt 1 0.5
vt 1 1
vt 0 1
vt 0 0.5
vt 0 0
vt 1 0
vt 1 1
vt 0 1
vt 1 0
vt 1 1
vt 0 1
vt 0 0
vt 1 0.5
vt 1 1
vt 0 1
vt 0 0.5
vt 1 1
vt 0 1
vt 0 0.5
vt 1 0.5
vn 1 0 0
vn -1 0 0
vn 0 1 0
vn 0 -1 0
vn 0 0 1
vn 0 0 -1
usemtl m_0f78bcea-5eba-be99-1a00-d5baf4f24c70
f 50/173/49 49/174/49 51/175/49 52/176/49
f 55/177/50 53/178/50 54/179/50 56/180/50
usemtl none
f 53/181/51 49/182/51 50/183/51 54/184/51
usemtl m_0f78bcea-5eba-be99-1a00-d5baf4f24c70
f 52/185/52 51/186/52 55/187/52 56/188/52
f 51/189/53 49/190/53 53/191/53 55/192/53
f 54/193/54 50/194/54 52/195/54 56/196/54
o cuboid
v -0.3187500000000001 -0.07500000000000001 0.8312499999999998
v -0.3187500000000001 -0.07500000000000001 0.7499999999999999
v -0.3187500000000001 -0.13750000000000004 0.8312499999999998
v -0.3187500000000001 -0.13750000000000004 0.7499999999999999
v -0.36875000000000013 -0.07500000000000001 0.8312499999999998
v -0.36875000000000013 -0.07500000000000001 0.7499999999999999
v -0.36875000000000013 -0.13750000000000004 0.8312499999999998
v -0.36875000000000013 -0.13750000000000004 0.7499999999999999
vt 1 1
vt 0 1
vt 0 0.5
vt 1 0.5
vt 1 0.5
vt 1 1
vt 0 1
vt 0 0.5
vt 0 0
vt 1 0
vt 1 1
vt 0 1
vt 1 0
vt 1 1
vt 0 1
vt 0 0
vt 1 0.5
vt 1 1
vt 0 1
vt 0 0.5
vt 1 1
vt 0 1
vt 0 0.5
vt 1 0.5
vn 1 0 0
vn -1 0 0
vn 0 1 0
vn 0 -1 0
vn 0 0 1
vn 0 0 -1
usemtl m_0f78bcea-5eba-be99-1a00-d5baf4f24c70
f 58/197/55 57/198/55 59/199/55 60/200/55
f 63/201/56 61/202/56 62/203/56 64/204/56
usemtl none
f 61/205/57 57/206/57 58/207/57 62/208/57
usemtl m_0f78bcea-5eba-be99-1a00-d5baf4f24c70
f 60/209/58 59/210/58 63/211/58 64/212/58
f 59/213/59 57/214/59 61/215/59 63/216/59
f 62/217/60 58/218/60 60/219/60 64/220/60