# Made in Blockbench 4.9.4
mtllib mass.mtl

o pyramid
v 0 1.375 0
v 0.5 0.875 0.5
v 0.5 0.875 -0.5
v -0.5 0.875 0.5
v -0.5 0.875 -0.5
vt 1 0
vt 1 1
vt 0 1
vt 0 0
vt 0 0.29288749999999997
vt 1 0.29288749999999997
vt 0.5 1
vt 0 0.29288749999999997
vt 1 0.29288749999999997
vt 0.5 1
vt 0 0.29288749999999997
vt 1 0.29288749999999997
vt 0.5 1
vt 0 0.29288749999999997
vt 1 0.29288749999999997
vt 0.5 1
vn 0 -1 0
vn 0.7071067811865476 0.7071067811865476 0
vn 0 0.7071067811865476 0.7071067811865476
vn 0 0.7071067811865476 -0.7071067811865476
vn -0.7071067811865476 0.7071067811865476 0
usemtl none
f 3/1/1 2/2/1 4/3/1 5/4/1
f 2/5/2 3/6/2 1/7/2
f 4/8/3 2/9/3 1/10/3
f 3/11/4 5/12/4 1/13/4
f 5/14/5 4/15/5 1/16/5
o pyramid
v 0 0 0
v 0.5 0.8750000000000001 -0.4999999999999999
v 0.5 0.8749999999999999 0.5000000000000001
v -0.5 0.8750000000000001 -0.4999999999999999
v -0.5 0.8749999999999999 0.5000000000000001
vt 1 0
vt 1 1
vt 0 1
vt 0 0
vt 0 0.29288749999999997
vt 1 0.29288749999999997
vt 0.5 1
vt 0 0.29288749999999997
vt 1 0.29288749999999997
vt 0.5 1
vt 0 0.29288749999999997
vt 1 0.29288749999999997
vt 0.5 1
vt 0 0.29288749999999997
vt 1 0.29288749999999997
vt 0.5 1
vn 0 1 1.2246467991473532e-16
vn 0.8682431421244593 -0.49613893835683387 -6.075949627910626e-17
vn 0 -0.49613893835683365 -0.8682431421244592
vn 0 -0.496138938356834 0.8682431421244592
vn -0.8682431421244593 -0.49613893835683387 -6.075949627910626e-17
usemtl none
f 8/17/6 7/18/6 9/19/6 10/20/6
f 7/21/7 8/22/7 6/23/7
f 9/24/8 7/25/8 6/26/8
f 8/27/9 10/28/9 6/29/9
f 10/30/10 9/31/10 6/32/10
o sphere
v 0 1.125 0
v 0 2.125 0
v 0.06698729810778065 2.0580127018922196 0.24999999999999994
v 0.11602540378443862 1.875 0.4330127018922193
v 0.13397459621556132 1.625 0.49999999999999994
v 0.11602540378443864 1.375 0.43301270189221935
v 0.06698729810778065 1.1919872981077806 0.24999999999999994
v 0.18301270189221924 2.0580127018922196 0.18301270189221927
v 0.31698729810778065 1.875 0.31698729810778065
v 0.3660254037844386 1.625 0.36602540378443865
v 0.31698729810778065 1.375 0.3169872981077807
v 0.18301270189221924 1.1919872981077806 0.18301270189221927
v 0.24999999999999994 2.0580127018922196 0.06698729810778065
v 0.4330127018922193 1.875 0.11602540378443862
v 0.49999999999999994 1.625 0.13397459621556132
v 0.43301270189221935 1.375 0.11602540378443864
v 0.24999999999999994 1.1919872981077806 0.06698729810778065
v 0.24999999999999994 2.0580127018922196 -0.06698729810778067
v 0.4330127018922193 1.875 -0.11602540378443868
v 0.49999999999999994 1.625 -0.13397459621556138
v 0.43301270189221935 1.375 -0.1160254037844387
v 0.24999999999999994 1.1919872981077806 -0.06698729810778067
v 0.18301270189221927 2.0580127018922196 -0.18301270189221924
v 0.31698729810778065 1.875 -0.31698729810778065
v 0.36602540378443865 1.625 -0.3660254037844386
v 0.3169872981077807 1.375 -0.31698729810778065
v 0.18301270189221927 1.1919872981077806 -0.18301270189221924
v 0.06698729810778072 2.0580127018922196 -0.2499999999999999
v 0.11602540378443875 1.875 -0.43301270189221924
v 0.1339745962155615 1.625 -0.4999999999999999
v 0.11602540378443876 1.375 -0.4330127018922193
v 0.06698729810778072 1.1919872981077806 -0.2499999999999999
v -0.06698729810778055 2.0580127018922196 -0.24999999999999997
v -0.11602540378443846 1.875 -0.43301270189221935
v -0.13397459621556113 1.625 -0.5
v -0.11602540378443847 1.375 -0.4330127018922194
v -0.06698729810778055 1.1919872981077806 -0.24999999999999997
v -0.18301270189221924 2.0580127018922196 -0.1830127018922193
v -0.31698729810778065 1.875 -0.3169872981077807
v -0.3660254037844386 1.625 -0.3660254037844387
v -0.31698729810778065 1.375 -0.31698729810778076
v -0.18301270189221924 1.1919872981077806 -0.1830127018922193
v -0.24999999999999994 2.0580127018922196 -0.06698729810778062
v -0.4330127018922193 1.875 -0.11602540378443858
v -0.49999999999999994 1.625 -0.13397459621556126
v -0.43301270189221935 1.375 -0.1160254037844386
v -0.24999999999999994 1.1919872981077806 -0.06698729810778062
v -0.24999999999999997 2.0580127018922196 0.06698729810778054
v -0.43301270189221935 1.875 0.11602540378443843
v -0.5 1.625 0.1339745962155611
v -0.4330127018922194 1.375 0.11602540378443844
v -0.24999999999999997 1.1919872981077806 0.06698729810778054
v -0.1830127018922193 2.0580127018922196 0.18301270189221922
v -0.3169872981077807 1.875 0.3169872981077806
v -0.3660254037844387 1.625 0.36602540378443854
v -0.31698729810778076 1.375 0.3169872981077806
v -0.1830127018922193 1.1919872981077806 0.18301270189221922
v -0.06698729810778063 2.0580127018922196 0.24999999999999994
v -0.1160254037844386 1.875 0.4330127018922193
v -0.1339745962155613 1.625 0.49999999999999994
v -0.11602540378443861 1.375 0.43301270189221935
v -0.06698729810778063 1.1919872981077806 0.24999999999999994
vt 0 0.7411749999999999
vt 0.133975 0.7411749999999999
vt 0.0669875 1
vt 0.0490375 1
vt 0 0.7411749999999999
vt 0.23205 0.7411749999999999
vt 0.18301250000000002 1
vt 0.017950000000000008 1
vt 0 0.7411749999999999
vt 0.26795 0.7411749999999999
vt 0.25 1
vt 0 1
vt 0.017950000000000008 0.7411749999999999
vt 0.25 0.7411749999999999
vt 0.26795 1
vt 0 1
vt 0.0490375 0.7411749999999999
vt 0.18301250000000002 0.7411749999999999
vt 0.23205 1
vt 0.133975 1
vt 0 1
vt 0.0669875 0.7411749999999999
vt 0 0.7411749999999999
vt 0.133975 0.7411749999999999
vt 0.0669875 1
vt 0.0490375 1
vt 0 0.7411749999999999
vt 0.23205 0.7411749999999999
vt 0.18301250000000002 1
vt 0.017950000000000008 1
vt 0 0.7411749999999999
vt 0.26795 0.7411749999999999
vt 0.25 1
vt 0 1
vt 0.017950000000000008 0.7411749999999999
vt 0.25 0.7411749999999999
vt 0.26795 1
vt 0 1
vt 0.0490375 0.7411749999999999
vt 0.18301250000000002 0.7411749999999999
vt 0.23205 1
vt 0.133975 1
vt 0 1
vt 0.0669875 0.7411749999999999
vt 0 0.7411749999999999
vt 0.133975 0.7411749999999999
vt 0.0669875 1
vt 0.0490375 1
vt 0 0.7411749999999999
vt 0.23205 0.7411749999999999
vt 0.18301250000000002 1
vt 0.017950000000000008 1
vt 0 0.7411749999999999
vt 0.26795 0.7411749999999999
vt 0.25 1
vt 0 1
vt 0.017950000000000008 0.7411749999999999
vt 0.25 0.7411749999999999
vt 0.26795 1
vt 0 1
vt 0.0490375 0.7411749999999999
vt 0.18301250000000002 0.7411749999999999
vt 0.23205 1
vt 0.133975 1
vt 0 1
vt 0.0669875 0.7411749999999999
vt 0 0.7411749999999999
vt 0.133975 0.7411749999999999
vt 0.0669875 1
vt 0.0490375 1
vt 0 0.7411749999999999
vt 0.23205 0.7411749999999999
vt 0.18301250000000002 1
vt 0.017950000000000008 1
vt 0 0.7411749999999999
vt 0.26795 0.7411749999999999
vt 0.25 1
vt 0 1
vt 0.017950000000000008 0.7411749999999999
vt 0.25 0.7411749999999999
vt 0.26795 1
vt 0 1
vt 0.0490375 0.7411749999999999
vt 0.18301250000000002 0.7411749999999999
vt 0.23205 1
vt 0.133975 1
vt 0 1
vt 0.0669875 0.7411749999999999
vt 0 0.7411749999999999
vt 0.133975 0.7411749999999999
vt 0.0669875 1
vt 0.0490375 1
vt 0 0.7411749999999999
vt 0.23205 0.7411749999999999
vt 0.18301250000000002 1
vt 0.017950000000000008 1
vt 0 0.7411749999999999
vt 0.26795 0.7411749999999999
vt 0.25 1
vt 0 1
vt 0.017950000000000008 0.7411749999999999
vt 0.25 0.7411749999999999
vt 0.26795 1
vt 0 1
vt 0.0490375 0.7411749999999999
vt 0.18301250000000002 0.7411749999999999
vt 0.23205 1
vt 0.133975 1
vt 0 1
vt 0.0669875 0.7411749999999999
vt 0 0.7411749999999999
vt 0.133975 0.7411749999999999
vt 0.0669875 1
vt 0.0490375 1
vt 0 0.7411749999999999
vt 0.23205 0.7411749999999999
vt 0.18301250000000002 1
vt 0.017950000000000008 1
vt 0 0.7411749999999999
vt 0.26795 0.7411749999999999
vt 0.25 1
vt 0 1
vt 0.017950000000000008 0.7411749999999999
vt 0.25 0.7411749999999999
vt 0.26795 1
vt 0 1
vt 0.0490375 0.7411749999999999
vt 0.18301250000000002 0.7411749999999999
vt 0.23205 1
vt 0.133975 1
vt 0 1
vt 0.0669875 0.7411749999999999
vt 0 0.7411749999999999
vt 0.133975 0.7411749999999999
vt 0.0669875 1
vt 0.0490375 1
vt 0 0.7411749999999999
vt 0.23205 0.7411749999999999
vt 0.18301250000000002 1
vt 0.017950000000000008 1
vt 0 0.7411749999999999
vt 0.26795 0.7411749999999999
vt 0.25 1
vt 0 1
vt 0.017950000000000008 0.7411749999999999
vt 0.25 0.7411749999999999
vt 0.26795 1
vt 0 1
vt 0.0490375 0.7411749999999999
vt 0.18301250000000002 0.7411749999999999
vt 0.23205 1
vt 0.133975 1
vt 0 1
vt 0.0669875 0.7411749999999999
vt 0 0.7411749999999999
vt 0.133975 0.7411749999999999
vt 0.0669875 1
vt 0.0490375 1
vt 0 0.7411749999999999
vt 0.23205 0.7411749999999999
vt 0.18301250000000002 1
vt 0.017950000000000008 1
vt 0 0.7411749999999999
vt 0.26795 0.7411749999999999
vt 0.25 1
vt 0 1
vt 0.017950000000000008 0.7411749999999999
vt 0.25 0.7411749999999999
vt 0.26795 1
vt 0 1
vt 0.0490375 0.7411749999999999
vt 0.18301250000000002 0.7411749999999999
vt 0.23205 1
vt 0.133975 1
vt 0 1
vt 0.0669875 0.7411749999999999
vt 0 0.7411749999999999
vt 0.133975 0.7411749999999999
vt 0.0669875 1
vt 0.0490375 1
vt 0 0.7411749999999999
vt 0.23205 0.7411749999999999
vt 0.18301250000000002 1
vt 0.017950000000000008 1
vt 0 0.7411749999999999
vt 0.26795 0.7411749999999999
vt 0.25 1
vt 0 1
vt 0.017950000000000008 0.7411749999999999
vt 0.25 0.7411749999999999
vt 0.26795 1
vt 0 1
vt 0.0490375 0.7411749999999999
vt 0.18301250000000002 0.7411749999999999
vt 0.23205 1
vt 0.133975 1
vt 0 1
vt 0.0669875 0.7411749999999999
vt 0 0.7411749999999999
vt 0.133975 0.7411749999999999
vt 0.0669875 1
vt 0.0490375 1
vt 0 0.7411749999999999
vt 0.23205 0.7411749999999999
vt 0.18301250000000002 1
vt 0.017950000000000008 1
vt 0 0.7411749999999999
vt 0.26795 0.7411749999999999
vt 0.25 1
vt 0 1
vt 0.017950000000000008 0.7411749999999999
vt 0.25 0.7411749999999999
vt 0.26795 1
vt 0 1
vt 0.0490375 0.7411749999999999
vt 0.18301250000000002 0.7411749999999999
vt 0.23205 1
vt 0.133975 1
vt 0 1
vt 0.0669875 0.7411749999999999
vt 0 0.7411749999999999
vt 0.133975 0.7411749999999999
vt 0.0669875 1
vt 0.0490375 1
vt 0 0.7411749999999999
vt 0.23205 0.7411749999999999
vt 0.18301250000000002 1
vt 0.017950000000000008 1
vt 0 0.7411749999999999
vt 0.26795 0.7411749999999999
vt 0.25 1
vt 0 1
vt 0.017950000000000008 0.7411749999999999
vt 0.25 0.7411749999999999
vt 0.26795 1
vt 0 1
vt 0.0490375 0.7411749999999999
vt 0.18301250000000002 0.7411749999999999
vt 0.23205 1
vt 0.133975 1
vt 0 1
vt 0.0669875 0.7411749999999999
vt 0 0.7411749999999999
vt 0.133975 0.7411749999999999
vt 0.0669875 1
vt 0.0490375 1
vt 0 0.7411749999999999
vt 0.23205 0.7411749999999999
vt 0.18301250000000002 1
vt 0.017950000000000008 1
vt 0 0.7411749999999999
vt 0.26795 0.7411749999999999
vt 0.25 1
vt 0 1
vt 0.017950000000000008 0.7411749999999999
vt 0.25 0.7411749999999999
vt 0.26795 1
vt 0 1
vt 0.0490375 0.7411749999999999
vt 0.18301250000000002 0.7411749999999999
vt 0.23205 1
vt 0.133975 1
vt 0 1
vt 0.0669875 0.7411749999999999
vn 0.1294095225512599 0.9659258262890685 0.22414386804201247
vn 0.3535533905932741 0.707106781186547 0.612372435695795
vn 0.48296291314453405 0.2588190451025207 0.836516303737808
vn 0.48296291314453427 -0.25881904510252046 0.8365163037378079
vn 0.3535533905932739 -0.7071067811865475 0.6123724356957945
vn 0.12940952255126031 -0.9659258262890685 0.2241438680420132
vn 0.22414386804201247 0.9659258262890685 0.12940952255125993
vn 0.612372435695795 0.7071067811865471 0.353553390593274
vn 0.8365163037378079 0.2588190451025208 0.48296291314453405
vn 0.8365163037378078 -0.2588190451025207 0.4829629131445343
vn 0.6123724356957945 -0.7071067811865476 0.35355339059327395
vn 0.22414386804201314 -0.9659258262890683 0.12940952255126031
vn 0.2588190451025197 0.9659258262890685 0
vn 0.7071067811865481 0.707106781186547 0
vn 0.9659258262890683 0.25881904510252063 0
vn 0.9659258262890684 -0.25881904510252046 0
vn 0.7071067811865476 -0.7071067811865476 0
vn 0.2588190451025205 -0.9659258262890685 0
vn 0.22414386804201245 0.9659258262890685 -0.12940952255125993
vn 0.6123724356957949 0.7071067811865471 -0.3535533905932742
vn 0.836516303737808 0.25881904510252063 -0.48296291314453416
vn 0.8365163037378079 -0.25881904510252046 -0.4829629131445344
vn 0.6123724356957945 -0.7071067811865476 -0.353553390593274
vn 0.22414386804201314 -0.9659258262890683 -0.12940952255126031
vn 0.1294095225512599 0.9659258262890685 -0.22414386804201245
vn 0.3535533905932741 0.707106781186547 -0.612372435695795
vn 0.48296291314453427 0.2588190451025208 -0.836516303737808
vn 0.4829629131445343 -0.2588190451025207 -0.8365163037378078
vn 0.35355339059327384 -0.7071067811865476 -0.6123724356957946
vn 0.12940952255126031 -0.9659258262890685 -0.22414386804201322
vn 1.6085896386392988e-16 0.9659258262890685 -0.2588190451025197
vn 3.466028960407393e-16 0.707106781186547 -0.7071067811865481
vn 4.0022255066204975e-16 0.2588190451025207 -0.9659258262890683
vn 4.621371947209863e-16 -0.2588190451025205 -0.9659258262890685
vn 4.0022255066204965e-16 -0.7071067811865476 -0.7071067811865475
vn 1.608589638639304e-16 -0.9659258262890683 -0.2588190451025205
vn -0.12940952255125981 0.9659258262890685 -0.2241438680420125
vn -0.3535533905932739 0.707106781186547 -0.6123724356957952
vn -0.48296291314453377 0.25881904510252063 -0.8365163037378082
vn -0.482962913144534 -0.2588190451025204 -0.8365163037378082
vn -0.3535533905932738 -0.7071067811865476 -0.6123724356957946
vn -0.12940952255126023 -0.9659258262890685 -0.22414386804201328
vn -0.22414386804201247 0.9659258262890685 -0.12940952255125987
vn -0.612372435695795 0.7071067811865471 -0.3535533905932739
vn -0.836516303737808 0.25881904510252074 -0.4829629131445339
vn -0.8365163037378082 -0.2588190451025207 -0.4829629131445342
vn -0.6123724356957944 -0.7071067811865476 -0.35355339059327384
vn -0.22414386804201325 -0.9659258262890685 -0.1294095225512603
vn -0.25881904510251974 0.9659258262890686 -5.361965462131001e-17
vn -0.707106781186548 0.707106781186547 -2.3106859736049304e-16
vn -0.9659258262890683 0.2588190451025207 -2.0011127533102507e-16
vn -0.9659258262890684 -0.25881904510252046 -2.3106859736049323e-16
vn -0.7071067811865476 -0.7071067811865476 -2.001112753310251e-16
vn -0.2588190451025205 -0.9659258262890683 -5.3619654621310167e-17
vn -0.22414386804201253 0.9659258262890688 0.12940952255125984
vn -0.6123724356957951 0.7071067811865469 0.35355339059327395
vn -0.8365163037378082 0.25881904510252063 0.48296291314453377
vn -0.8365163037378082 -0.2588190451025204 0.482962913144534
vn -0.6123724356957946 -0.7071067811865475 0.3535533905932738
vn -0.22414386804201325 -0.9659258262890685 0.12940952255126023
vn -0.12940952255125993 0.9659258262890685 0.22414386804201245
vn -0.3535533905932741 0.7071067811865471 0.6123724356957949
vn -0.4829629131445341 0.2588190451025208 0.8365163037378079
vn -0.48296291314453427 -0.2588190451025207 0.8365163037378078
vn -0.3535533905932739 -0.7071067811865476 0.6123724356957944
vn -0.12940952255126034 -0.9659258262890683 0.22414386804201317
vn 0 0.9659258262890686 0.25881904510251974
vn 0 0.707106781186547 0.707106781186548
vn 0 0.25881904510252063 0.9659258262890683
vn 0 -0.2588190451025205 0.9659258262890685
vn 0 -0.7071067811865476 0.7071067811865476
vn 0 -0.9659258262890685 0.2588190451025205
usemtl none
f 13/33/11 18/34/11 12/35/11
f 13/36/12 14/37/12 19/38/12 18/39/12
f 14/40/13 15/41/13 20/42/13 19/43/13
f 15/44/14 16/45/14 21/46/14 20/47/14
f 16/48/15 17/49/15 22/50/15 21/51/15
f 22/52/16 17/53/16 11/54/16
f 18/55/17 23/56/17 12/57/17
f 18/58/18 19/59/18 24/60/18 23/61/18
f 19/62/19 20/63/19 25/64/19 24/65/19
f 20/66/20 21/67/20 26/68/20 25/69/20
f 21/70/21 22/71/21 27/72/21 26/73/21
f 27/74/22 22/75/22 11/76/22
f 23/77/23 28/78/23 12/79/23
f 23/80/24 24/81/24 29/82/24 28/83/24
f 24/84/25 25/85/25 30/86/25 29/87/25
f 25/88/26 26/89/26 31/90/26 30/91/26
f 26/92/27 27/93/27 32/94/27 31/95/27
f 32/96/28 27/97/28 11/98/28
f 28/99/29 33/100/29 12/101/29
f 28/102/30 29/103/30 34/104/30 33/105/30
f 29/106/31 30/107/31 35/108/31 34/109/31
f 30/110/32 31/111/32 36/112/32 35/113/32
f 31/114/33 32/115/33 37/116/33 36/117/33
f 37/118/34 32/119/34 11/120/34
f 33/121/35 38/122/35 12/123/35
f 33/124/36 34/125/36 39/126/36 38/127/36
f 34/128/37 35/129/37 40/130/37 39/131/37
f 35/132/38 36/133/38 41/134/38 40/135/38
f 36/136/39 37/137/39 42/138/39 41/139/39
f 42/140/40 37/141/40 11/142/40
f 38/143/41 43/144/41 12/145/41
f 38/146/42 39/147/42 44/148/42 43/149/42
f 39/150/43 40/151/43 45/152/43 44/153/43
f 40/154/44 41/155/44 46/156/44 45/157/44
f 41/158/45 42/159/45 47/160/45 46/161/45
f 47/162/46 42/163/46 11/164/46
f 43/165/47 48/166/47 12/167/47
f 43/168/48 44/169/48 49/170/48 48/171/48
f 44/172/49 45/173/49 50/174/49 49/175/49
f 45/176/50 46/177/50 51/178/50 50/179/50
f 46/180/51 47/181/51 52/182/51 51/183/51
f 52/184/52 47/185/52 11/186/52
f 48/187/53 53/188/53 12/189/53
f 48/190/54 49/191/54 54/192/54 53/193/54
f 49/194/55 50/195/55 55/196/55 54/197/55
f 50/198/56 51/199/56 56/200/56 55/201/56
f 51/202/57 52/203/57 57/204/57 56/205/57
f 57/206/58 52/207/58 11/208/58
f 53/209/59 58/210/59 12/211/59
f 53/212/60 54/213/60 59/214/60 58/215/60
f 54/216/61 55/217/61 60/218/61 59/219/61
f 55/220/62 56/221/62 61/222/62 60/223/62
f 56/224/63 57/225/63 62/226/63 61/227/63
f 62/228/64 57/229/64 11/230/64
f 58/231/65 63/232/65 12/233/65
f 58/234/66 59/235/66 64/236/66 63/237/66
f 59/238/67 60/239/67 65/240/67 64/241/67
f 60/242/68 61/243/68 66/244/68 65/245/68
f 61/246/69 62/247/69 67/248/69 66/249/69
f 67/250/70 62/251/70 11/252/70
f 63/253/71 68/254/71 12/255/71
f 63/256/72 64/257/72 69/258/72 68/259/72
f 64/260/73 65/261/73 70/262/73 69/263/73
f 65/264/74 66/265/74 71/266/74 70/267/74
f 66/268/75 67/269/75 72/270/75 71/271/75
f 72/272/76 67/273/76 11/274/76
f 68/275/77 13/276/77 12/277/77
f 68/278/78 69/279/78 14/280/78 13/281/78
f 69/282/79 70/283/79 15/284/79 14/285/79
f 70/286/80 71/287/80 16/288/80 15/289/80
f 71/290/81 72/291/81 17/292/81 16/293/81
f 17/294/82 72/295/82 11/296/82